<svg width="196" height="32" viewBox="0 0 196 32" fill="none" xmlns="http://www.w3.org/2000/svg" role="img" aria-labelledby="title">
  <title id="title">Roasfund</title>
  <path d="M4 25V7H14C18.5 7 21.5 10 21.5 14.5C21.5 19 18.5 22 14 22H10" stroke="#0A0E1A" stroke-width="4" stroke-linecap="square" stroke-linejoin="miter"/>
  <path d="M14 22C20 22 21.5 10 29 10C34.2 10 36.8 16 33.2 20.2C30.3 23.6 24.2 22.6 21.5 16" stroke="#0A0E1A" stroke-width="4" stroke-linecap="square" stroke-linejoin="miter"/>
  <path d="M27.5 16H29.8L31 13.8L33 19L34.2 16H36" stroke="#0A0E1A" stroke-width="1.7" stroke-linecap="square" stroke-linejoin="miter"/>
  <path d="M53.6 22V8.4H60C61.43 8.4 62.56 8.75 63.38 9.45C64.22 10.15 64.64 11.13 64.64 12.38C64.64 13.21 64.43 13.92 64.02 14.5C63.62 15.08 63.05 15.52 62.3 15.82L65.2 22H61.84L59.3 16.32H56.64V22H53.6ZM56.64 13.92H59.62C60.21 13.92 60.67 13.8 60.98 13.56C61.3 13.3 61.46 12.93 61.46 12.46C61.46 11.99 61.3 11.63 60.98 11.38C60.67 11.13 60.21 11 59.62 11H56.64V13.92Z" fill="#0A0E1A"/>
  <path d="M72.65 22.22C71.28 22.22 70.07 21.92 69.03 21.32C67.99 20.71 67.18 19.88 66.6 18.83C66.02 17.77 65.73 16.57 65.73 15.22C65.73 13.86 66.02 12.66 66.6 11.62C67.18 10.56 67.99 9.74 69.03 9.15C70.07 8.55 71.28 8.25 72.65 8.25C74.01 8.25 75.21 8.55 76.24 9.15C77.28 9.74 78.09 10.56 78.67 11.62C79.25 12.66 79.54 13.86 79.54 15.22C79.54 16.57 79.25 17.77 78.67 18.83C78.09 19.88 77.28 20.71 76.24 21.32C75.21 21.92 74.01 22.22 72.65 22.22ZM72.65 19.46C73.42 19.46 74.09 19.29 74.66 18.95C75.23 18.6 75.67 18.11 75.98 17.48C76.3 16.84 76.46 16.09 76.46 15.22C76.46 14.36 76.3 13.61 75.98 12.98C75.67 12.34 75.23 11.85 74.66 11.52C74.09 11.17 73.42 11 72.65 11C71.86 11 71.18 11.17 70.6 11.52C70.03 11.85 69.58 12.34 69.26 12.98C68.95 13.61 68.79 14.36 68.79 15.22C68.79 16.09 68.95 16.84 69.26 17.48C69.58 18.11 70.03 18.6 70.6 18.95C71.18 19.29 71.86 19.46 72.65 19.46Z" fill="#0A0E1A"/>
  <path d="M80.1 22L85.14 8.4H88.5L93.52 22H90.28L89.3 19.16H84.28L83.3 22H80.1ZM85.14 16.68H88.44L86.8 11.9L85.14 16.68Z" fill="#0A0E1A"/>
  <path d="M100.36 22.22C99.11 22.22 97.99 22.02 97 21.62C96.01 21.21 95.14 20.61 94.4 19.82L96.18 17.72C96.79 18.33 97.44 18.8 98.14 19.12C98.85 19.43 99.63 19.58 100.48 19.58C101.17 19.58 101.7 19.46 102.08 19.22C102.46 18.98 102.66 18.64 102.66 18.2C102.66 17.81 102.52 17.51 102.24 17.3C101.96 17.09 101.5 16.92 100.86 16.78L98.42 16.24C97.28 15.98 96.39 15.52 95.76 14.86C95.13 14.2 94.82 13.36 94.82 12.34C94.82 11.51 95.04 10.79 95.48 10.18C95.92 9.57 96.56 9.1 97.38 8.76C98.2 8.42 99.17 8.25 100.3 8.25C101.39 8.25 102.43 8.43 103.42 8.8C104.41 9.16 105.23 9.67 105.88 10.32L104.2 12.52C102.98 11.42 101.65 10.86 100.22 10.86C99.6 10.86 99.12 10.97 98.78 11.18C98.43 11.39 98.26 11.69 98.26 12.08C98.26 12.43 98.38 12.7 98.62 12.9C98.87 13.09 99.3 13.26 99.9 13.4L102.22 13.92C103.51 14.21 104.48 14.68 105.12 15.32C105.76 15.96 106.08 16.82 106.08 17.9C106.08 19.22 105.57 20.27 104.54 21.05C103.52 21.83 102.13 22.22 100.36 22.22Z" fill="#0A0E1A"/>
  <path d="M108.5 22V8.4H118.46V11H111.54V14.1H117.86V16.62H111.54V22H108.5Z" fill="#0A0E1A"/>
  <path d="M126.58 22.22C124.75 22.22 123.33 21.74 122.32 20.78C121.32 19.81 120.82 18.42 120.82 16.6V8.4H123.86V16.52C123.86 17.44 124.1 18.16 124.58 18.68C125.06 19.2 125.73 19.46 126.58 19.46C127.42 19.46 128.08 19.2 128.56 18.68C129.04 18.16 129.28 17.44 129.28 16.52V8.4H132.32V16.6C132.32 18.42 131.82 19.81 130.82 20.78C129.82 21.74 128.4 22.22 126.58 22.22Z" fill="#0A0E1A"/>
  <path d="M135.1 22V8.4H137.96L144.18 16.82V8.4H147.04V22H144.36L137.96 13.26V22H135.1Z" fill="#0A0E1A"/>
  <path d="M150.1 22V8.4H155.48C156.92 8.4 158.2 8.69 159.3 9.26C160.4 9.82 161.26 10.63 161.88 11.68C162.5 12.72 162.8 13.9 162.8 15.22C162.8 16.54 162.5 17.73 161.88 18.78C161.26 19.82 160.4 20.62 159.3 21.18C158.2 21.73 156.92 22 155.48 22H150.1ZM153.14 19.34H155.42C156.29 19.34 157.04 19.17 157.68 18.84C158.32 18.5 158.81 18.02 159.16 17.4C159.5 16.77 159.68 16.05 159.68 15.22C159.68 14.39 159.5 13.67 159.16 13.04C158.81 12.41 158.32 11.93 157.68 11.6C157.04 11.26 156.29 11.1 155.42 11.1H153.14V19.34Z" fill="#0A0E1A"/>
</svg>
