<svg width="170" height="28" viewBox="0 0 170 28" fill="none" xmlns="http://www.w3.org/2000/svg" role="img" aria-labelledby="title">
  <title id="title">Roasfund</title>
  <path d="M2 2H24V26H2V2Z" stroke="#0A0E1A" stroke-width="3"/>
  <path d="M9 9H24V13H13V26H9V9Z" fill="#0A0E1A"/>
  <path d="M40.08 22V6.32H47.21C48.81 6.32 50.06 6.72 50.96 7.52C51.87 8.31 52.32 9.41 52.32 10.82C52.32 11.78 52.09 12.6 51.62 13.28C51.16 13.95 50.5 14.45 49.65 14.78L52.96 22H49.11L46.18 15.39H43.53V22H40.08ZM43.53 12.67H46.81C47.46 12.67 47.96 12.52 48.31 12.22C48.67 11.91 48.85 11.47 48.85 10.9C48.85 10.33 48.67 9.9 48.31 9.61C47.96 9.31 47.46 9.16 46.81 9.16H43.53V12.67Z" fill="#0A0E1A"/>
  <path d="M61.91 22.24C60.36 22.24 58.99 21.9 57.8 21.21C56.62 20.51 55.7 19.56 55.04 18.35C54.38 17.13 54.05 15.76 54.05 14.21C54.05 12.65 54.38 11.27 55.04 10.07C55.7 8.86 56.62 7.92 57.8 7.24C58.99 6.55 60.36 6.2 61.91 6.2C63.46 6.2 64.82 6.55 65.99 7.24C67.17 7.92 68.09 8.86 68.75 10.07C69.41 11.27 69.74 12.65 69.74 14.21C69.74 15.76 69.41 17.13 68.75 18.35C68.09 19.56 67.17 20.51 65.99 21.21C64.82 21.9 63.46 22.24 61.91 22.24ZM61.91 19.11C62.78 19.11 63.54 18.91 64.18 18.5C64.83 18.09 65.33 17.52 65.68 16.78C66.04 16.04 66.22 15.18 66.22 14.21C66.22 13.24 66.04 12.39 65.68 11.66C65.33 10.92 64.83 10.35 64.18 9.95C63.54 9.54 62.78 9.34 61.91 9.34C61.03 9.34 60.26 9.54 59.6 9.95C58.95 10.35 58.44 10.92 58.08 11.66C57.72 12.39 57.54 13.24 57.54 14.21C57.54 15.18 57.72 16.04 58.08 16.78C58.44 17.52 58.95 18.09 59.6 18.5C60.26 18.91 61.03 19.11 61.91 19.11Z" fill="#0A0E1A"/>
  <path d="M70.98 22L76.77 6.32H80.58L86.34 22H82.67L81.53 18.66H75.74L74.6 22H70.98ZM76.66 15.8H80.61L78.64 10.02L76.66 15.8Z" fill="#0A0E1A"/>
  <path d="M94.08 22.24C92.66 22.24 91.39 22.01 90.27 21.55C89.16 21.08 88.18 20.39 87.34 19.47L89.36 17.07C90.06 17.8 90.8 18.34 91.59 18.69C92.39 19.04 93.27 19.22 94.23 19.22C95.02 19.22 95.63 19.08 96.06 18.8C96.5 18.51 96.72 18.11 96.72 17.59C96.72 17.14 96.56 16.8 96.24 16.57C95.93 16.33 95.4 16.13 94.66 15.96L91.88 15.34C90.58 15.04 89.57 14.52 88.85 13.77C88.13 13.02 87.77 12.06 87.77 10.9C87.77 9.95 88.02 9.13 88.52 8.44C89.03 7.75 89.75 7.21 90.68 6.82C91.61 6.43 92.72 6.24 94 6.24C95.24 6.24 96.42 6.45 97.53 6.87C98.64 7.28 99.57 7.86 100.32 8.61L98.41 11.1C97.02 9.83 95.51 9.2 93.88 9.2C93.18 9.2 92.63 9.33 92.23 9.58C91.84 9.83 91.64 10.18 91.64 10.64C91.64 11.05 91.78 11.37 92.06 11.59C92.35 11.81 92.83 12 93.5 12.16L96.14 12.75C97.61 13.08 98.71 13.62 99.43 14.36C100.16 15.1 100.52 16.08 100.52 17.31C100.52 18.82 99.94 20.02 98.78 20.91C97.62 21.8 96.05 22.24 94.08 22.24Z" fill="#0A0E1A"/>
  <path d="M103.21 22V6.32H114.48V9.25H106.66V12.91H113.81V15.73H106.66V22H103.21Z" fill="#0A0E1A"/>
  <path d="M123.59 22.24C121.5 22.24 119.89 21.69 118.75 20.58C117.62 19.47 117.05 17.88 117.05 15.82V6.32H120.5V15.73C120.5 16.78 120.77 17.6 121.31 18.2C121.86 18.79 122.62 19.09 123.59 19.09C124.56 19.09 125.31 18.79 125.84 18.2C126.38 17.6 126.65 16.78 126.65 15.73V6.32H130.1V15.82C130.1 17.88 129.53 19.47 128.4 20.58C127.27 21.69 125.66 22.24 123.59 22.24Z" fill="#0A0E1A"/>
  <path d="M133.25 22V6.32H136.5L143.62 16.08V6.32H146.87V22H143.82L136.5 11.9V22H133.25Z" fill="#0A0E1A"/>
  <path d="M150.22 22V6.32H156.36C158 6.32 159.45 6.65 160.71 7.31C161.97 7.96 162.95 8.88 163.64 10.07C164.34 11.25 164.69 12.63 164.69 14.21C164.69 15.78 164.34 17.17 163.64 18.36C162.95 19.54 161.97 20.45 160.71 21.1C159.45 21.7 158 22 156.36 22H150.22ZM153.67 18.98H156.29C157.28 18.98 158.14 18.79 158.86 18.4C159.58 18.01 160.14 17.46 160.52 16.73C160.91 15.99 161.1 15.15 161.1 14.21C161.1 13.25 160.91 12.41 160.52 11.68C160.14 10.95 159.58 10.39 158.86 10C158.14 9.61 157.28 9.42 156.29 9.42H153.67V18.98Z" fill="#0A0E1A"/>
</svg>
